<svg width="66" height="28" viewBox="0 0 66 28" fill="none" xmlns="http://www.w3.org/2000/svg">
<path fill-rule="evenodd" clip-rule="evenodd" d="M65.2909 14.3851C65.2909 9.78283 63.0617 6.15137 58.801 6.15137C54.5224 6.15137 51.9336 9.78283 51.9336 14.3491C51.9336 19.7604 54.9898 22.4929 59.3763 22.4929C61.5156 22.4929 63.1336 22.0075 64.3561 21.3244V17.7289C63.1336 18.3401 61.7313 18.7177 59.9516 18.7177C58.2077 18.7177 56.6617 18.1064 56.4639 15.9851H65.2549C65.2549 15.7514 65.2909 14.8165 65.2909 14.3851ZM56.41 12.6772C56.41 10.6457 57.6504 9.80081 58.783 9.80081C59.8797 9.80081 61.0482 10.6457 61.0482 12.6772H56.41Z" fill="#0A2540"/>
<path fill-rule="evenodd" clip-rule="evenodd" d="M44.9946 6.15137C43.2328 6.15137 42.1002 6.97833 41.471 7.55361L41.2373 6.43901H37.2822V27.4008L41.7766 26.448L41.7946 21.3604C42.4418 21.8278 43.3946 22.4929 44.9766 22.4929C48.1946 22.4929 51.1249 19.9042 51.1249 14.2053C51.1069 8.99182 48.1407 6.15137 44.9946 6.15137ZM43.9159 18.5379C42.8553 18.5379 42.226 18.1604 41.7946 17.6929L41.7766 11.0233C42.244 10.5019 42.8912 10.1424 43.9159 10.1424C45.5519 10.1424 46.6845 11.9761 46.6845 14.3311C46.6845 16.7401 45.5699 18.5379 43.9159 18.5379Z" fill="#0A2540"/>
<path fill-rule="evenodd" clip-rule="evenodd" d="M31.0981 5.09093L35.6105 4.12014V0.470703L31.0981 1.42351V5.09093Z" fill="#0A2540"/>
<path d="M35.6105 6.45703H31.0981V22.1874H35.6105V6.45703Z" fill="#0A2540"/>
<path fill-rule="evenodd" clip-rule="evenodd" d="M26.2626 7.78765L25.9749 6.45731H22.0918V22.1876H26.5862V11.527C27.6469 10.1427 29.4446 10.3944 30.0019 10.5921V6.45731C29.4266 6.24158 27.3233 5.84607 26.2626 7.78765Z" fill="#0A2540"/>
<path fill-rule="evenodd" clip-rule="evenodd" d="M17.2731 2.55566L12.8866 3.4905L12.8687 17.8905C12.8687 20.5512 14.8642 22.5107 17.5248 22.5107C18.999 22.5107 20.0776 22.2411 20.6709 21.9175V18.268C20.0956 18.5017 17.2552 19.3287 17.2552 16.668V10.286H20.6709V6.45679H17.2552L17.2731 2.55566Z" fill="#0A2540"/>
<path fill-rule="evenodd" clip-rule="evenodd" d="M5.12058 11.0233C5.12058 10.3222 5.69586 10.0525 6.64867 10.0525C8.01496 10.0525 9.7408 10.466 11.1071 11.2031V6.97833C9.61496 6.38507 8.14081 6.15137 6.64867 6.15137C2.99923 6.15137 0.572266 8.05699 0.572266 11.239C0.572266 16.2008 7.40373 15.4098 7.40373 17.5491C7.40373 18.3761 6.68463 18.6458 5.67788 18.6458C4.18575 18.6458 2.28013 18.0345 0.770018 17.2075V21.4862C2.44193 22.2053 4.13182 22.5109 5.67788 22.5109C9.41721 22.5109 11.988 20.6592 11.988 17.4413C11.97 12.084 5.12058 13.0368 5.12058 11.0233Z" fill="#0A2540"/>
</svg>
