<svg width="65" height="40" viewBox="0 0 65 40" fill="none" xmlns="http://www.w3.org/2000/svg">
<path d="M41.3892 4.27783H23.8892V35.7223H41.3892V4.27783Z" fill="#FF5F00"/>
<path d="M25.0003 20.0002C25.0003 13.8891 27.8336 8.05579 32.6114 4.27801C23.9447 -2.55533 11.3892 -1.05533 4.55584 7.6669C-2.27749 16.3336 -0.777494 28.8891 7.94473 35.7225C15.2225 41.4447 25.3892 41.4447 32.667 35.7225C27.8336 31.9447 25.0003 26.1113 25.0003 20.0002Z" fill="#EB001B"/>
<path d="M65.0003 20.0002C65.0003 31.0558 56.0559 40.0002 45.0003 40.0002C40.5003 40.0002 36.167 38.5002 32.667 35.7225C41.3337 28.8891 42.8337 16.3336 36.0003 7.61134C35.0003 6.38912 33.8892 5.22245 32.667 4.27801C41.3337 -2.55533 53.9448 -1.05533 60.7225 7.6669C63.5003 11.1669 65.0003 15.5002 65.0003 20.0002Z" fill="#F79E1B"/>
<path d="M63.1115 32.3891V31.7224H63.3893V31.6113H62.7227V31.7224H63.0004V32.3891H63.1115ZM64.3893 32.3891V31.6113H64.1671L63.9449 32.1669L63.7227 31.6113H63.5004V32.3891H63.6671V31.778L63.8893 32.278H64.056L64.2782 31.778V32.3891H64.3893Z" fill="#F79E1B"/>
</svg>
