<svg width="154" height="40" viewBox="0 0 154 40" fill="none" xmlns="http://www.w3.org/2000/svg">
<path d="M134.417 9.34372L131.142 29.9209C131.129 29.9964 131.134 30.0738 131.154 30.1474C131.175 30.2211 131.212 30.2893 131.262 30.3474C131.312 30.4054 131.374 30.4518 131.444 30.4833C131.513 30.5148 131.589 30.5307 131.666 30.5298H135.542C135.678 30.531 135.811 30.4832 135.915 30.395C136.02 30.3068 136.089 30.184 136.111 30.049L139.386 9.47188C139.399 9.39632 139.394 9.31899 139.374 9.24532C139.353 9.17164 139.316 9.1034 139.266 9.04538C139.216 8.98736 139.154 8.94096 139.084 8.90944C139.015 8.87792 138.939 8.86203 138.862 8.8629H134.986C134.849 8.86019 134.716 8.90749 134.611 8.99596C134.506 9.08444 134.437 9.20805 134.417 9.34372ZM130.278 15.3486H126.6C126.464 15.3473 126.331 15.395 126.227 15.4831C126.122 15.5711 126.053 15.6938 126.031 15.8286L125.91 16.5862C125.91 16.5862 123.053 13.489 117.996 15.5821C115.095 16.7805 113.702 19.2564 113.11 21.0703C113.11 21.0703 111.229 26.5829 115.483 29.6172C115.483 29.6172 119.427 32.5356 123.869 29.4376L123.792 29.9209C123.774 30.0344 123.794 30.1506 123.849 30.2517C123.903 30.3529 123.99 30.4334 124.094 30.4809C124.164 30.5135 124.239 30.5298 124.316 30.5298H127.996C128.133 30.5326 128.267 30.4853 128.372 30.3968C128.477 30.3083 128.546 30.1847 128.566 30.049L130.804 15.9576C130.817 15.8821 130.813 15.8048 130.791 15.7312C130.77 15.6577 130.733 15.5897 130.683 15.5323C130.633 15.4738 130.571 15.4269 130.501 15.395C130.431 15.3631 130.355 15.3478 130.278 15.3486ZM124.866 23.1364C124.723 24.1209 124.225 25.0193 123.466 25.6629C122.704 26.3089 121.735 26.6576 120.736 26.6449C120.344 26.6495 119.954 26.5928 119.58 26.4768C117.992 25.9707 117.086 24.4572 117.346 22.8164C117.491 21.8323 117.989 20.9347 118.748 20.2915C119.509 19.6452 120.478 19.2953 121.477 19.3062C121.869 19.3021 122.259 19.3594 122.633 19.476C124.231 19.9788 125.133 21.4947 124.871 23.1372H124.866V23.1364ZM105.229 23.5258C107.223 23.5258 109.152 22.8172 110.667 21.529C112.179 20.2452 113.18 18.4615 113.488 16.5021C114.133 12.4262 110.925 8.86862 106.378 8.86862H99.0534C98.9167 8.86731 98.784 8.91512 98.6796 9.00337C98.5752 9.09161 98.5059 9.21442 98.4844 9.34943L95.2085 29.9266C95.1907 30.0401 95.2106 30.1563 95.2652 30.2575C95.3197 30.3586 95.4059 30.4391 95.5105 30.4866C95.5807 30.5192 95.6558 30.5356 95.7326 30.5356H99.6109C99.7476 30.5369 99.8803 30.489 99.9847 30.4008C100.089 30.3126 100.158 30.1898 100.18 30.0547L101.142 24.0123C101.162 23.8765 101.231 23.7527 101.336 23.664C101.44 23.5754 101.574 23.528 101.711 23.5307L105.229 23.5258ZM108.473 16.3168C108.234 17.8237 107.06 18.9331 104.814 18.9331H101.943L102.815 13.4531H105.635C107.956 13.4572 108.712 14.8164 108.473 16.3209V16.3168Z" fill="#0070E0"/>
<path d="M90.7897 15.6977L86.3537 23.1304L84.1023 15.7524C84.0671 15.6347 83.9945 15.5316 83.8956 15.4587C83.7966 15.3858 83.6766 15.3471 83.5537 15.3484H79.5505C79.4469 15.347 79.3463 15.383 79.2673 15.4499C79.1882 15.5168 79.136 15.6101 79.1203 15.7124C79.1105 15.7803 79.1175 15.8495 79.1407 15.9141L83.175 28.3418L79.526 34.1982C79.495 34.2464 79.4742 34.3004 79.4648 34.3569C79.4554 34.4135 79.4577 34.4713 79.4715 34.5269C79.4852 34.5826 79.5102 34.6348 79.5448 34.6805C79.5795 34.7261 79.623 34.7642 79.6729 34.7924C79.7397 34.8308 79.8155 34.8505 79.8925 34.8496H84.2043C84.3274 34.85 84.4485 34.8187 84.5559 34.7586C84.6633 34.6985 84.7534 34.6118 84.8174 34.5067L96.086 16.003C96.1268 15.9386 96.1492 15.8642 96.1508 15.788C96.1524 15.7117 96.1331 15.6365 96.095 15.5704C96.0569 15.5041 96.0018 15.4492 95.9353 15.4115C95.8688 15.3737 95.7934 15.3544 95.717 15.3557H91.4068C91.2831 15.3546 91.1613 15.3855 91.0532 15.4454C90.945 15.5054 90.8542 15.5923 90.7897 15.6977ZM77.2811 15.3484H73.6003C73.4633 15.347 73.3305 15.3949 73.2259 15.4833C73.1213 15.5717 73.052 15.6948 73.0305 15.83L72.9113 16.5867C72.9113 16.5867 70.0525 13.4896 64.9954 15.5826C62.095 16.781 60.7015 19.2569 60.1113 21.0708C60.1113 21.0708 58.2288 26.5835 62.4819 29.6177C62.4819 29.6177 66.4272 32.5361 70.8688 29.4381L70.7921 29.9214C70.774 30.035 70.7938 30.1513 70.8484 30.2525C70.903 30.3537 70.9893 30.4341 71.0941 30.4814C71.1635 30.5141 71.2394 30.5304 71.3162 30.5304H74.9962C75.1328 30.5314 75.2653 30.4834 75.3696 30.3952C75.474 30.3071 75.5433 30.1845 75.5652 30.0496L77.8044 15.9581C77.8226 15.8445 77.8029 15.728 77.7483 15.6266C77.6937 15.5252 77.6073 15.4447 77.5023 15.3973C77.4327 15.3653 77.3577 15.3486 77.2811 15.3484ZM71.8688 23.1377C71.724 24.1211 71.226 25.018 70.468 25.661C69.7065 26.3069 68.7375 26.6565 67.739 26.6455C67.3479 26.6498 66.9584 26.5931 66.5848 26.4773C64.9978 25.9712 64.0925 24.4577 64.3529 22.8161C64.498 21.8299 64.9981 20.9306 65.7594 20.2871C66.5237 19.6408 67.4958 19.2926 68.4966 19.3067C68.8884 19.3026 69.2795 19.3598 69.6533 19.4765C71.2346 19.9794 72.135 21.4945 71.8737 23.1377H71.8688ZM52.2321 23.5263C54.223 23.5253 56.1488 22.8167 57.6656 21.5271C59.1761 20.2433 60.176 18.4602 60.4835 16.5018C61.1284 12.4267 57.9203 8.86917 53.375 8.86917H46.0492C45.9126 8.8678 45.7799 8.91547 45.6754 9.00354C45.5708 9.09161 45.5013 9.21424 45.4794 9.34917L42.2141 29.9206C42.1959 30.0343 42.2156 30.1508 42.2702 30.2522C42.3248 30.3535 42.4112 30.4341 42.5162 30.4814C42.5856 30.5133 42.6615 30.5304 42.7382 30.5304H46.6141C46.7511 30.5317 46.8839 30.4838 46.9885 30.3954C47.0931 30.307 47.1624 30.184 47.1839 30.0488L48.1439 24.0063C48.1643 23.8706 48.2334 23.747 48.3383 23.6586C48.4431 23.5701 48.5766 23.5228 48.7137 23.5255L52.2321 23.5263ZM55.4762 16.3165C55.237 17.8235 54.0639 18.9328 51.8182 18.9328H48.9472L49.8174 13.4528H52.637C54.9595 13.4569 55.7146 14.8169 55.4762 16.3206V16.3165Z" fill="#003087"/>
<path d="M27.1752 9.92636C27.2626 5.38269 23.5148 1.89697 18.3613 1.89697H7.70175C7.45334 1.89686 7.21306 1.98545 7.02418 2.14678C6.83531 2.30812 6.71025 2.5316 6.67154 2.77697L2.40052 29.4651C2.38141 29.5861 2.38874 29.7097 2.422 29.8276C2.45526 29.9454 2.51366 30.0546 2.59318 30.1477C2.67271 30.2408 2.77146 30.3156 2.88265 30.3669C2.99384 30.4181 3.11481 30.4447 3.23725 30.4447H9.55236L8.56542 36.6243C8.54631 36.7453 8.55364 36.8689 8.5869 36.9867C8.62016 37.1046 8.67856 37.2138 8.75808 37.3069C8.8376 37.4 8.93636 37.4748 9.04755 37.526C9.15873 37.5773 9.27971 37.6039 9.40215 37.6039H14.5466C14.7948 37.6039 15.016 37.5149 15.2054 37.3541C15.3932 37.1925 15.4242 36.9696 15.4634 36.7239L16.9736 27.839C17.0119 27.5941 17.1368 27.2757 17.3254 27.1141C17.514 26.9525 17.6789 26.8643 17.9279 26.8643H21.0756C26.123 26.8643 30.4046 23.2766 31.1875 18.2872C31.7417 14.746 30.2234 11.5239 27.1752 9.92636Z" fill="#001C64"/>
<path d="M10.9187 20.6025L9.34567 30.5764L8.35791 36.8327C8.33892 36.9537 8.34637 37.0773 8.37973 37.1951C8.4131 37.3129 8.4716 37.422 8.55119 37.5151C8.63079 37.6081 8.7296 37.6828 8.84082 37.7339C8.95204 37.7851 9.07303 37.8116 9.19546 37.8115H14.6404C14.8885 37.8114 15.1285 37.7227 15.3171 37.5613C15.5056 37.4 15.6304 37.1767 15.6689 36.9315L17.104 27.8384C17.1427 27.5932 17.2677 27.3698 17.4564 27.2085C17.6451 27.0472 17.8852 26.9585 18.1334 26.9584H21.3383C26.3857 26.9584 30.6673 23.2768 31.451 18.2874C32.0061 14.7462 30.2232 11.5233 27.1751 9.92578C27.1669 10.3029 27.1342 10.6792 27.0763 11.0523C26.2934 16.0401 22.0102 19.7225 16.9644 19.7225H11.9481C11.6998 19.7228 11.4597 19.8116 11.271 19.9731C11.0823 20.1346 10.9574 20.3572 10.9187 20.6025Z" fill="#0070E0"/>
<path d="M9.34471 30.5765H3.01002C2.8876 30.5765 2.76665 30.5499 2.65549 30.4986C2.54433 30.4473 2.44562 30.3726 2.36616 30.2795C2.2867 30.1863 2.22838 30.0771 2.19522 29.9593C2.16206 29.8414 2.15486 29.7178 2.1741 29.5969L6.44512 2.51281C6.48381 2.26758 6.60874 2.04421 6.79745 1.88289C6.98616 1.72157 7.22624 1.63289 7.47451 1.63281H18.361C23.5145 1.63281 27.2623 5.38302 27.1749 9.92587C25.8925 9.25322 24.3855 8.86873 22.7349 8.86873H13.659C13.4106 8.86861 13.1703 8.9572 12.9814 9.11854C12.7926 9.27988 12.6675 9.50336 12.6288 9.74873L10.9194 20.6026L9.34389 30.5765H9.34471Z" fill="#003087"/>
</svg>
